<svg width="25" height="24" viewBox="0 0 25 24" fill="none" xmlns="http://www.w3.org/2000/svg">
<mask id="mask0_114_408" style="mask-type:alpha" maskUnits="userSpaceOnUse" x="0" y="0" width="25" height="24">
<rect x="0.963623" width="24" height="24" fill="#D9D9D9"/>
</mask>
<g mask="url(#mask0_114_408)">
<path d="M14.9807 15.5232L11.8196 17.6769C10.7907 18.3778 9.6666 18.6128 8.44734 18.3817C7.22808 18.1505 6.26795 17.5205 5.56696 16.4916C4.86597 15.4627 4.63104 14.3386 4.86215 13.1194C5.09327 11.9001 5.72328 10.94 6.75219 10.239L9.91327 8.08537L10.6734 9.20104L7.51229 11.3547C6.7933 11.8445 6.35282 12.5167 6.19084 13.3712C6.02886 14.2258 6.19279 15.0125 6.68264 15.7315C7.17249 16.4505 7.84467 16.891 8.6992 17.053C9.55372 17.215 10.3405 17.051 11.0595 16.5612L14.2206 14.4075L14.9807 15.5232ZM10.5027 13.9457L9.74259 12.83L15.5069 8.90278L16.267 10.0185L10.5027 13.9457ZM16.0963 14.7631L15.3362 13.6474L18.4973 11.4938C19.2163 11.0039 19.6568 10.3317 19.8188 9.47723C19.9808 8.6227 19.8168 7.83594 19.327 7.11695C18.8371 6.39796 18.1649 5.95747 17.3104 5.79549C16.4559 5.63351 15.6691 5.79744 14.9501 6.28729L11.7891 8.44093L11.0289 7.32526L14.19 5.17162C15.2189 4.47063 16.343 4.23569 17.5623 4.46681C18.7815 4.69793 19.7417 5.32794 20.4426 6.35684C21.1436 7.38574 21.3786 8.50983 21.1475 9.72909C20.9163 10.9483 20.2863 11.9085 19.2574 12.6095L16.0963 14.7631Z" fill="#999999"/>
</g>
</svg>
