<svg width="42" height="42" viewBox="0 0 42 42" fill="none" xmlns="http://www.w3.org/2000/svg">
<rect width="42" height="42" rx="8" fill="#0B1026"/>
<path d="M29.6667 10.1667H12.3333C11.1367 10.1667 10.1667 11.1367 10.1667 12.3333V16.6667C10.1667 17.8633 11.1367 18.8333 12.3333 18.8333H29.6667C30.8633 18.8333 31.8333 17.8633 31.8333 16.6667V12.3333C31.8333 11.1367 30.8633 10.1667 29.6667 10.1667Z" stroke="#FCFCFC" stroke-width="2" stroke-linecap="round" stroke-linejoin="round"/>
<path d="M29.6667 23.1667H12.3333C11.1367 23.1667 10.1667 24.1367 10.1667 25.3333V29.6667C10.1667 30.8633 11.1367 31.8333 12.3333 31.8333H29.6667C30.8633 31.8333 31.8333 30.8633 31.8333 29.6667V25.3333C31.8333 24.1367 30.8633 23.1667 29.6667 23.1667Z" stroke="#FCFCFC" stroke-width="2" stroke-linecap="round" stroke-linejoin="round"/>
<path d="M14.5 14.5H14.5113" stroke="#FCFCFC" stroke-width="2" stroke-linecap="round" stroke-linejoin="round"/>
<path d="M14.5 27.5H14.5113" stroke="#FCFCFC" stroke-width="2" stroke-linecap="round" stroke-linejoin="round"/>
</svg>
