<svg width="25" height="24" viewBox="0 0 25 24" fill="none" xmlns="http://www.w3.org/2000/svg">
<path d="M20.417 20H7.44659C7.0475 20 6.69829 19.85 6.39898 19.55C6.09966 19.25 5.95 18.9 5.95 18.5V2.5C5.95 2.1 6.09966 1.75 6.39898 1.45C6.69829 1.15 7.0475 1 7.44659 1H16.1268L21.9136 6.8V18.5C21.9136 18.9 21.764 19.25 21.4647 19.55C21.1653 19.85 20.8161 20 20.417 20ZM15.3785 7.45V2.5H7.44659V18.5H20.417V7.45H15.3785ZM4.45341 23C4.05432 23 3.70511 22.85 3.40579 22.55C3.10648 22.25 2.95682 21.9 2.95682 21.5V6.025H4.45341V21.5H16.8751V23H4.45341Z" fill="#999999"/>
</svg>
