<svg width="26" height="26" viewBox="0 0 26 26" fill="none" xmlns="http://www.w3.org/2000/svg">
<path d="M11.9167 4.33333H4.33333C3.7587 4.33333 3.20759 4.5616 2.80127 4.96793C2.39494 5.37426 2.16666 5.92536 2.16666 6.49999V21.6667C2.16666 22.2413 2.39494 22.7924 2.80127 23.1987C3.20759 23.6051 3.7587 23.8333 4.33333 23.8333H19.5C20.0746 23.8333 20.6257 23.6051 21.0321 23.1987C21.4384 22.7924 21.6667 22.2413 21.6667 21.6667V14.0833" stroke="#FCFCFC" stroke-width="2" stroke-linecap="round" stroke-linejoin="round"/>
<path d="M20.0417 2.70833C20.4726 2.27735 21.0572 2.03523 21.6667 2.03523C22.2762 2.03523 22.8607 2.27735 23.2917 2.70833C23.7226 3.13931 23.9648 3.72384 23.9648 4.33333C23.9648 4.94282 23.7226 5.52735 23.2917 5.95833L13 16.25L8.66666 17.3333L9.75 13L20.0417 2.70833Z" stroke="#FCFCFC" stroke-width="2" stroke-linecap="round" stroke-linejoin="round"/>
</svg>
