<svg width="42" height="42" viewBox="0 0 42 42" fill="none" xmlns="http://www.w3.org/2000/svg">
<rect width="42" height="42" rx="8" fill="#0B1026"/>
<path d="M23.1667 10.1667H14.5C13.9254 10.1667 13.3743 10.3949 12.9679 10.8013C12.5616 11.2076 12.3333 11.7587 12.3333 12.3333V29.6667C12.3333 30.2413 12.5616 30.7924 12.9679 31.1987C13.3743 31.6051 13.9254 31.8333 14.5 31.8333H27.5C28.0746 31.8333 28.6257 31.6051 29.0321 31.1987C29.4384 30.7924 29.6667 30.2413 29.6667 29.6667V16.6667L23.1667 10.1667Z" stroke="#FCFCFC" stroke-width="2" stroke-linecap="round" stroke-linejoin="round"/>
<path d="M23.1667 10.1667V16.6667H29.6667" stroke="#FCFCFC" stroke-width="2" stroke-linecap="round" stroke-linejoin="round"/>
<path d="M25.3333 22.0833H16.6667" stroke="#FCFCFC" stroke-width="2" stroke-linecap="round" stroke-linejoin="round"/>
<path d="M25.3333 26.4167H16.6667" stroke="#FCFCFC" stroke-width="2" stroke-linecap="round" stroke-linejoin="round"/>
<path d="M18.8333 17.75H17.75H16.6667" stroke="#FCFCFC" stroke-width="2" stroke-linecap="round" stroke-linejoin="round"/>
</svg>
