<svg width="18" height="19" viewBox="0 0 18 19" fill="none" xmlns="http://www.w3.org/2000/svg">
<path d="M16.9 18.975L10.325 12.4C9.825 12.8333 9.24167 13.1708 8.575 13.4125C7.90833 13.6542 7.2 13.775 6.45 13.775C4.65 13.775 3.125 13.15 1.875 11.9C0.625 10.65 0 9.14167 0 7.37501C0 5.60834 0.625 4.10001 1.875 2.85001C3.125 1.60001 4.64167 0.975006 6.425 0.975006C8.19167 0.975006 9.69583 1.60001 10.9375 2.85001C12.1792 4.10001 12.8 5.60834 12.8 7.37501C12.8 8.09167 12.6833 8.78334 12.45 9.45001C12.2167 10.1167 11.8667 10.7417 11.4 11.325L18 17.875L16.9 18.975ZM6.425 12.275C7.775 12.275 8.925 11.7958 9.875 10.8375C10.825 9.87917 11.3 8.72501 11.3 7.37501C11.3 6.02501 10.825 4.87084 9.875 3.91251C8.925 2.95417 7.775 2.47501 6.425 2.47501C5.05833 2.47501 3.89583 2.95417 2.9375 3.91251C1.97917 4.87084 1.5 6.02501 1.5 7.37501C1.5 8.72501 1.97917 9.87917 2.9375 10.8375C3.89583 11.7958 5.05833 12.275 6.425 12.275Z" fill="#A9A9A9"/>
</svg>
