<svg width="42" height="42" viewBox="0 0 42 42" fill="none" xmlns="http://www.w3.org/2000/svg">
<rect width="42" height="42" rx="8" fill="#0B1026"/>
<g clip-path="url(#clip0_2_673)">
<path d="M20.8796 24.1296C22.6746 24.1296 24.1296 22.6746 24.1296 20.8796C24.1296 19.0847 22.6746 17.6296 20.8796 17.6296C19.0847 17.6296 17.6296 19.0847 17.6296 20.8796C17.6296 22.6746 19.0847 24.1296 20.8796 24.1296Z" stroke="#FCFCFC" stroke-width="2" stroke-linecap="round" stroke-linejoin="round"/>
<path d="M28.8963 24.1296C28.7521 24.4564 28.7091 24.8188 28.7728 25.1703C28.8365 25.5217 29.004 25.846 29.2538 26.1013L29.3188 26.1663C29.5202 26.3675 29.6801 26.6065 29.7891 26.8695C29.8981 27.1325 29.9542 27.4145 29.9542 27.6992C29.9542 27.9839 29.8981 28.2659 29.7891 28.5289C29.6801 28.7919 29.5202 29.0309 29.3188 29.2321C29.1176 29.4336 28.8786 29.5934 28.6156 29.7024C28.3526 29.8115 28.0706 29.8676 27.7859 29.8676C27.5011 29.8676 27.2192 29.8115 26.9562 29.7024C26.6931 29.5934 26.4542 29.4336 26.253 29.2321L26.188 29.1671C25.9326 28.9174 25.6084 28.7498 25.2569 28.6861C24.9055 28.6224 24.543 28.6654 24.2163 28.8096C23.8959 28.947 23.6226 29.175 23.4301 29.4656C23.2376 29.7563 23.1344 30.0969 23.133 30.4455V30.6296C23.133 31.2043 22.9047 31.7554 22.4984 32.1617C22.092 32.568 21.5409 32.7963 20.9663 32.7963C20.3917 32.7963 19.8406 32.568 19.4342 32.1617C19.0279 31.7554 18.7996 31.2043 18.7996 30.6296V30.5321C18.7912 30.1736 18.6752 29.8258 18.4665 29.5341C18.2579 29.2423 17.9663 29.0201 17.6296 28.8963C17.3029 28.7521 16.9404 28.7091 16.589 28.7728C16.2376 28.8365 15.9133 29.004 15.658 29.2538L15.593 29.3188C15.3917 29.5202 15.1528 29.6801 14.8897 29.7891C14.6267 29.8981 14.3448 29.9543 14.06 29.9543C13.7753 29.9543 13.4934 29.8981 13.2303 29.7891C12.9673 29.6801 12.7284 29.5202 12.5271 29.3188C12.3257 29.1176 12.1659 28.8786 12.0568 28.6156C11.9478 28.3526 11.8917 28.0706 11.8917 27.7859C11.8917 27.5011 11.9478 27.2192 12.0568 26.9562C12.1659 26.6931 12.3257 26.4542 12.5271 26.253L12.5921 26.188C12.8419 25.9326 13.0094 25.6084 13.0731 25.2569C13.1369 24.9055 13.0938 24.543 12.9496 24.2163C12.8123 23.8959 12.5843 23.6226 12.2936 23.4301C12.003 23.2376 11.6624 23.1344 11.3138 23.133H11.1296C10.555 23.133 10.0039 22.9047 9.59756 22.4984C9.19123 22.092 8.96296 21.5409 8.96296 20.9663C8.96296 20.3917 9.19123 19.8406 9.59756 19.4342C10.0039 19.0279 10.555 18.7996 11.1296 18.7996H11.2271C11.5857 18.7912 11.9335 18.6752 12.2252 18.4665C12.5169 18.2579 12.7392 17.9663 12.863 17.6296C13.0072 17.3029 13.0502 16.9404 12.9865 16.589C12.9227 16.2376 12.7552 15.9133 12.5055 15.658L12.4405 15.593C12.239 15.3917 12.0792 15.1528 11.9702 14.8898C11.8611 14.6267 11.805 14.3448 11.805 14.06C11.805 13.7753 11.8611 13.4934 11.9702 13.2303C12.0792 12.9673 12.239 12.7284 12.4405 12.5271C12.6417 12.3257 12.8806 12.1659 13.1437 12.0568C13.4067 11.9478 13.6886 11.8917 13.9734 11.8917C14.2581 11.8917 14.5401 11.9478 14.8031 12.0568C15.0661 12.1659 15.3051 12.3257 15.5063 12.5271L15.5713 12.5921C15.8266 12.8419 16.1509 13.0094 16.5023 13.0731C16.8537 13.1369 17.2162 13.0938 17.543 12.9496H17.6296C17.95 12.8123 18.2233 12.5843 18.4158 12.2936C18.6083 12.003 18.7116 11.6624 18.713 11.3138V11.1296C18.713 10.555 18.9412 10.0039 19.3476 9.59757C19.7539 9.19124 20.305 8.96296 20.8796 8.96296C21.4543 8.96296 22.0054 9.19124 22.4117 9.59757C22.818 10.0039 23.0463 10.555 23.0463 11.1296V11.2271C23.0477 11.5757 23.151 11.9163 23.3435 12.207C23.5359 12.4976 23.8092 12.7256 24.1296 12.863C24.4564 13.0072 24.8188 13.0502 25.1703 12.9865C25.5217 12.9227 25.846 12.7552 26.1013 12.5055L26.1663 12.4405C26.3675 12.239 26.6065 12.0792 26.8695 11.9702C27.1325 11.8611 27.4145 11.805 27.6992 11.805C27.9839 11.805 28.2659 11.8611 28.5289 11.9702C28.7919 12.0792 29.0309 12.239 29.2321 12.4405C29.4336 12.6417 29.5934 12.8806 29.7024 13.1437C29.8115 13.4067 29.8676 13.6886 29.8676 13.9734C29.8676 14.2581 29.8115 14.5401 29.7024 14.8031C29.5934 15.0661 29.4336 15.3051 29.2321 15.5063L29.1671 15.5713C28.9174 15.8266 28.7498 16.1509 28.6861 16.5023C28.6224 16.8538 28.6654 17.2162 28.8096 17.543V17.6296C28.947 17.95 29.175 18.2233 29.4656 18.4158C29.7563 18.6083 30.0969 18.7116 30.4455 18.713H30.6296C31.2043 18.713 31.7554 18.9412 32.1617 19.3476C32.568 19.7539 32.7963 20.305 32.7963 20.8796C32.7963 21.4543 32.568 22.0054 32.1617 22.4117C31.7554 22.818 31.2043 23.0463 30.6296 23.0463H30.5321C30.1835 23.0477 29.8429 23.151 29.5523 23.3435C29.2616 23.5359 29.0336 23.8092 28.8963 24.1296Z" stroke="#FCFCFC" stroke-width="2" stroke-linecap="round" stroke-linejoin="round"/>
</g>
<defs>
<clipPath id="clip0_2_673">
<rect width="26" height="26" fill="white" transform="translate(8 8)"/>
</clipPath>
</defs>
</svg>
