<svg width="88" height="48" viewBox="0 0 88 48" fill="none" xmlns="http://www.w3.org/2000/svg">
<rect width="88" height="48" rx="24" fill="#EBEBEB"/>
<path d="M21.5 29.8333C21.5 30.5333 21.6083 31.2167 21.8083 31.85C18.6083 30.7417 16.1917 27.8 15.9417 24.3583C15.6917 20.7 17.8 17.2833 21.2083 15.85C22.0917 15.4833 22.5417 15.75 22.7333 15.9417C22.9167 16.125 23.175 16.5667 22.8083 17.4083C22.4333 18.275 22.25 19.1917 22.25 20.1417C22.2583 21.8417 22.925 23.4167 24.0083 24.625C22.4833 25.8417 21.5 27.725 21.5 29.8333Z" fill="#C0B9B9"/>
<path opacity="0.4" d="M31.675 28.7667C30.025 31.0083 27.4083 32.325 24.6167 32.325C24.4833 32.325 24.35 32.3167 24.2167 32.3083C23.3833 32.275 22.575 32.1167 21.8083 31.85C21.6083 31.2167 21.5 30.5333 21.5 29.8333C21.5 27.725 22.4833 25.8417 24.0083 24.625C25.2333 26 26.9917 26.8917 28.9333 26.975C29.4583 27 29.9833 26.9583 30.5 26.8667C31.4333 26.7 31.8083 27.05 31.9417 27.275C32.0833 27.5 32.2333 27.9917 31.675 28.7667Z" fill="#C0B9B9"/>
<rect x="44" y="4" width="40" height="40" rx="20" fill="#D90091"/>
<path opacity="0.4" d="M64 29.8333C67.2216 29.8333 69.8333 27.2217 69.8333 24C69.8333 20.7783 67.2216 18.1667 64 18.1667C60.7783 18.1667 58.1666 20.7783 58.1666 24C58.1666 27.2217 60.7783 29.8333 64 29.8333Z" fill="white"/>
<path d="M64 33.1333C63.5417 33.1333 63.1667 32.7917 63.1667 32.3333V32.2667C63.1667 31.8083 63.5417 31.4333 64 31.4333C64.4584 31.4333 64.8334 31.8083 64.8334 32.2667C64.8334 32.725 64.4584 33.1333 64 33.1333ZM69.95 30.7833C69.7334 30.7833 69.525 30.7 69.3584 30.5417L69.25 30.4333C68.925 30.1083 68.925 29.5833 69.25 29.2583C69.575 28.9333 70.1 28.9333 70.425 29.2583L70.5334 29.3667C70.8584 29.6917 70.8584 30.2167 70.5334 30.5417C70.375 30.7 70.1667 30.7833 69.95 30.7833ZM58.05 30.7833C57.8334 30.7833 57.625 30.7 57.4584 30.5417C57.1334 30.2167 57.1334 29.6917 57.4584 29.3667L57.5667 29.2583C57.8917 28.9333 58.4167 28.9333 58.7417 29.2583C59.0667 29.5833 59.0667 30.1083 58.7417 30.4333L58.6334 30.5417C58.475 30.7 58.2584 30.7833 58.05 30.7833ZM72.3334 24.8333H72.2667C71.8084 24.8333 71.4334 24.4583 71.4334 24C71.4334 23.5417 71.8084 23.1667 72.2667 23.1667C72.725 23.1667 73.1334 23.5417 73.1334 24C73.1334 24.4583 72.7917 24.8333 72.3334 24.8333ZM55.7334 24.8333H55.6667C55.2084 24.8333 54.8334 24.4583 54.8334 24C54.8334 23.5417 55.2084 23.1667 55.6667 23.1667C56.125 23.1667 56.5334 23.5417 56.5334 24C56.5334 24.4583 56.1917 24.8333 55.7334 24.8333ZM69.8417 18.9917C69.625 18.9917 69.4167 18.9083 69.25 18.75C68.925 18.425 68.925 17.9 69.25 17.575L69.3584 17.4667C69.6834 17.1417 70.2084 17.1417 70.5334 17.4667C70.8584 17.7917 70.8584 18.3167 70.5334 18.6417L70.425 18.75C70.2667 18.9083 70.0584 18.9917 69.8417 18.9917ZM58.1584 18.9917C57.9417 18.9917 57.7334 18.9083 57.5667 18.75L57.4584 18.6333C57.1334 18.3083 57.1334 17.7833 57.4584 17.4583C57.7834 17.1333 58.3084 17.1333 58.6334 17.4583L58.7417 17.5667C59.0667 17.8917 59.0667 18.4167 58.7417 18.7417C58.5834 18.9083 58.3667 18.9917 58.1584 18.9917ZM64 16.5333C63.5417 16.5333 63.1667 16.1917 63.1667 15.7333V15.6667C63.1667 15.2083 63.5417 14.8333 64 14.8333C64.4584 14.8333 64.8334 15.2083 64.8334 15.6667C64.8334 16.125 64.4584 16.5333 64 16.5333Z" fill="white"/>
</svg>
